<svg xmlns="http://www.w3.org/2000/svg" version="1.1" xmlns:xlink="http://www.w3.org/1999/xlink" xmlns:svgjs="http://svgjs.dev/svgjs" width="110" height="63.03"><g><svg viewBox="0 0 395.52 97.8187667151679" height="63.03" width="110" xmlns="http://www.w3.org/2000/svg" version="1.1" xmlns:xlink="http://www.w3.org/1999/xlink" xmlns:svgjs="http://svgjs.com/svgjs" x="0" y="0" viewbox="0 0 110 63.03"><g><svg viewBox="0 0 662.723682777407 163.90274403878468" height="97.8187667151679" width="395.52"><g transform="matrix(1,0,0,1,267.20368277740704,33.72045744652801)"><svg viewBox="0 0 395.52 96.46182914572866" height="96.46182914572866" width="395.52"><g id="textblocktransform"><svg viewBox="0 0 395.52 96.46182914572866" height="96.46182914572866" width="395.52" id="textblock"><g><svg viewBox="0 0 395.52 96.46182914572866" height="96.46182914572866" width="395.52"><g transform="matrix(1,0,0,1,0,0)"><svg width="395.52" viewBox="0.6000000238418579 -35.54999923706055 149.239990234375 36.39999771118164" height="96.46182914572866" data-palette-color="#ea3c12"><path d="M28.4-10.15Q28.4-6.9 26.7-4.4 25-1.9 21.83-0.53 18.65 0.85 14.3 0.85L14.3 0.85Q5.7 0.85 0.6-4.15L0.6-4.15 4.75-8.75Q8.7-5.25 14.1-5.25L14.1-5.25Q16.7-5.25 18.28-6.38 19.85-7.5 19.85-9.5L19.85-9.5Q19.85-11.4 18.53-12.48 17.2-13.55 13.6-14.65L13.6-14.65Q7.5-16.5 4.95-19 2.4-21.5 2.4-25.45L2.4-25.45Q2.4-28.55 4.13-30.85 5.85-33.15 8.83-34.35 11.8-35.55 15.45-35.55L15.45-35.55Q23.1-35.55 27.85-31.05L27.85-31.05 24-26.6Q22.25-28.05 20.23-28.78 18.2-29.5 16.05-29.5L16.05-29.5Q13.65-29.5 12.28-28.63 10.9-27.75 10.9-26.1L10.9-26.1Q10.9-25 11.53-24.25 12.15-23.5 13.6-22.85 15.05-22.2 17.95-21.3L17.95-21.3Q23.25-19.7 25.83-17.18 28.4-14.65 28.4-10.15L28.4-10.15ZM56.25-34.65L56.25-28.65 49.1-28.65 49.1-6.05 56.25-6.05 56.25 0 33.75 0 33.75-6.05 40.9-6.05 40.9-28.65 33.75-28.65 33.75-34.65 56.25-34.65ZM64.65 0L64.65-34.65 72.84-34.65 72.84-6.5 87.84-6.5 87.05 0 64.65 0ZM102.84-28.8L102.84-20.45 114.84-20.45 114.84-14.75 102.84-14.75 102.84-5.9 117.29-5.9 117.29 0 94.64 0 94.64-34.65 117.29-34.65 116.44-28.8 102.84-28.8ZM120.94-34.65L129.79-34.65 134.99-23.55 140.34-34.65 148.99-34.65 139.79-18.75 149.84 0 140.99 0 134.89-13.2 128.89 0 120.19 0 129.99-18.4 120.94-34.65Z" opacity="1" transform="matrix(1,0,0,1,0,0)" fill="#ea3c12" class="undefined-text-0" data-fill-palette-color="primary" id="text-0"></path></svg></g></svg></g></svg></g></svg></g><g><svg viewBox="0 0 244.43136 163.90274403878468" height="163.90274403878468" width="244.43136"><g><svg xmlns="http://www.w3.org/2000/svg" xmlns:xlink="http://www.w3.org/1999/xlink" version="1.1" x="0" y="0" viewBox="2.200000286102295 15.399999618530273 85.9000015258789 57.599998474121094" enable-background="new 0 0 90 90" xml:space="preserve" height="163.90274403878468" width="244.43136" class="icon-icon-0" data-fill-palette-color="accent" id="icon-0"><g fill="#db4f35" data-fill-palette-color="accent"><path d="M6.6 25c0 1.4 1.1 2.5 2.5 2.5s2.5-1.1 2.5-2.5-1.1-2.5-2.5-2.5S6.6 23.6 6.6 25zM10.7 25c0 0.9-0.7 1.6-1.6 1.6-0.9 0-1.6-0.7-1.6-1.6 0-0.9 0.7-1.6 1.6-1.6C10 23.4 10.7 24.1 10.7 25z" fill="#db4f35" data-fill-palette-color="accent"></path><path d="M64.3 27.8H17.2v14.1h47.1V27.8zM63.4 41H18.1V28.7h45.3V41z" fill="#db4f35" data-fill-palette-color="accent"></path><path d="M17.2 53.3H30v-9.7H17.2V53.3zM18.1 44.5h10.9v7.9H18.1V44.5z" fill="#db4f35" data-fill-palette-color="accent"></path><rect x="32.9" y="44.2" width="31" height="0.9" fill="#db4f35" data-fill-palette-color="accent"></rect><rect x="32.9" y="46.6" width="31" height="0.9" fill="#db4f35" data-fill-palette-color="accent"></rect><rect x="32.9" y="49.1" width="31" height="0.9" fill="#db4f35" data-fill-palette-color="accent"></rect><rect x="32.9" y="51.6" width="18" height="0.9" fill="#db4f35" data-fill-palette-color="accent"></rect><rect x="27.8" y="70.5" width="26.1" height="2.5" fill="#db4f35" data-fill-palette-color="accent"></rect><path d="M4.1 20.5h73.5v10.9h1.8V20.5c0-2.8-2.3-5.1-5.1-5.1H7.3c-2.8 0-5.1 2.3-5.1 5.1v38c0 2.8 2.3 5.1 5.1 5.1h24.1L31 69.4h1.8l0.5-5.8h15.1l0.5 5.8h1.8l-0.5-5.8h15.9v-6H4.1V20.5z" fill="#db4f35" data-fill-palette-color="accent"></path><path d="M82.2 32.3h-9.2c-3.3 0-5.9 2.7-5.9 5.9v28.1c0 3.3 2.7 5.9 5.9 5.9h9.2c3.3 0 5.9-2.7 5.9-5.9V38.2C88.1 35 85.4 32.3 82.2 32.3zM68.2 64.8V38.6h18.7v26.2H68.2zM75.9 35.2h3.3c0.3 0 0.6 0.3 0.6 0.6s-0.3 0.6-0.6 0.6h-3.3c-0.3 0-0.6-0.3-0.6-0.6S75.5 35.2 75.9 35.2zM79.3 68c0 0.7-0.6 1.3-1.3 1.3h-0.7c-0.7 0-1.3-0.6-1.3-1.3V68c0-0.7 0.6-1.3 1.3-1.3h0.7C78.6 66.6 79.3 67.2 79.3 68L79.3 68z" fill="#db4f35" data-fill-palette-color="accent"></path><path d="M68.9 49.9h17.2v-6.7H68.9V49.9zM69.7 44h15.5v5H69.7V44z" fill="#db4f35" data-fill-palette-color="accent"></path><path d="M77.2 50.3h-8.4V57h8.4V50.3zM76.4 56.2h-6.6v-5h6.6V56.2z" fill="#db4f35" data-fill-palette-color="accent"></path><path d="M77.7 57h8.4v-6.7h-8.4V57zM78.6 51.2h6.6v5h-6.6V51.2z" fill="#db4f35" data-fill-palette-color="accent"></path><path d="M77.4 42.6c1 0 1.8-0.8 1.8-1.8S78.3 39 77.4 39s-1.8 0.8-1.8 1.8S76.4 42.6 77.4 42.6zM77.4 39.9c0.5 0 0.9 0.4 0.9 0.9s-0.4 0.9-0.9 0.9-0.9-0.4-0.9-0.9S76.8 39.9 77.4 39.9z" fill="#db4f35" data-fill-palette-color="accent"></path><rect x="68.9" y="57.9" width="17.2" height="0.9" fill="#db4f35" data-fill-palette-color="accent"></rect><rect x="68.9" y="59.6" width="17.2" height="0.9" fill="#db4f35" data-fill-palette-color="accent"></rect><rect x="68.9" y="61.2" width="17.2" height="0.9" fill="#db4f35" data-fill-palette-color="accent"></rect><rect x="68.9" y="62.8" width="10.1" height="0.9" fill="#db4f35" data-fill-palette-color="accent"></rect></g></svg></g></svg></g></svg></g><defs></defs></svg></g></svg>