<svg width="30" height="30" viewBox="0 0 30 30" fill="none" xmlns="http://www.w3.org/2000/svg">
<path d="M7.87625 24.9022C7.8115 24.6509 7.55528 24.5 7.3042 24.5646C7.05301 24.6294 6.9019 24.8855 6.96664 25.1367C6.99881 25.2614 7.0151 25.3908 7.0151 25.5212C7.0151 26.3673 6.32675 27.0556 5.48071 27.0556C4.63468 27.0556 3.94632 26.3673 3.94632 25.5212C3.94632 24.6752 4.63462 23.9868 5.48065 23.9868C5.61085 23.9868 5.74005 24.0031 5.86456 24.0351C6.11575 24.0997 6.37192 23.9486 6.43655 23.6974C6.50124 23.4461 6.35001 23.19 6.09882 23.1254C5.89784 23.0737 5.68983 23.0474 5.48065 23.0474C4.1166 23.0474 3.00684 24.1572 3.00684 25.5212C3.00684 26.8853 4.1166 27.995 5.48065 27.995C6.84471 27.995 7.95447 26.8853 7.95447 25.5212C7.95447 25.3118 7.92816 25.1035 7.87625 24.9022Z" fill="#1E5DDB"/>
<path d="M19.9012 24.9021C19.8364 24.6509 19.5801 24.5 19.3291 24.5646C19.0779 24.6294 18.9268 24.8855 18.9915 25.1367C19.0237 25.2614 19.04 25.3908 19.04 25.5212C19.04 26.3673 18.3516 27.0556 17.5056 27.0556C16.6596 27.0556 15.9712 26.3673 15.9712 25.5212C15.9712 24.6752 16.6596 23.9868 17.5056 23.9868C17.6358 23.9868 17.765 24.0031 17.8896 24.0351C18.1408 24.0997 18.3969 23.9486 18.4616 23.6973C18.5263 23.4461 18.375 23.19 18.1237 23.1253C17.9227 23.0736 17.7147 23.0473 17.5056 23.0473C16.1415 23.0473 15.0317 24.1571 15.0317 25.5212C15.0317 26.8852 16.1415 27.995 17.5056 27.995C18.8696 27.995 19.9794 26.8852 19.9794 25.5212C19.9794 25.3117 19.9531 25.1035 19.9012 24.9021Z" fill="#1E5DDB"/>
<path d="M21.9279 24.8064C21.6635 23.1043 20.4122 21.696 18.7403 21.2185C17.9531 20.9937 17.1626 20.9837 16.3856 21.188L13.8167 17.3347C13.9166 17.0634 13.9669 16.7845 13.9669 16.5027C13.9669 16.2087 13.9151 15.9265 13.8206 15.6647L18.6204 8.46495C18.987 7.91516 19.1175 7.25552 18.9879 6.60759C18.8583 5.95961 18.4842 5.40097 17.9343 5.03441C17.8307 4.96527 17.7037 4.94014 17.5816 4.96463C17.4595 4.98906 17.352 5.06102 17.2829 5.16467L11.493 13.8495L5.70321 5.16467C5.55936 4.94887 5.26768 4.89045 5.05188 5.03441C4.50204 5.40092 4.12792 5.95961 3.99831 6.60759C3.8687 7.25558 3.99919 7.91516 4.36575 8.46495L9.16954 15.6707C9.06964 15.9421 9.01925 16.2209 9.01925 16.5027C9.01925 16.7968 9.07105 17.0789 9.16562 17.3406L6.60074 21.1881C5.82374 20.9837 5.03331 20.9937 4.24605 21.2186C2.57396 21.6961 1.32276 23.1044 1.05844 24.8064C0.828755 26.285 1.30928 27.7219 2.37674 28.7488C3.225 29.5648 4.31982 30 5.47417 29.9999C5.77293 29.9999 6.0758 29.9708 6.37914 29.9115C8.09845 29.5758 9.49626 28.1981 9.85743 26.4833C10.1329 25.1753 9.83862 23.8609 9.04907 22.8222L11.4932 19.156L13.9374 22.8222C13.1478 23.8609 12.8535 25.1752 13.1291 26.4833C13.4902 28.1981 14.888 29.5758 16.6073 29.9116C16.9109 29.9708 17.2136 30 17.5123 30C18.6666 30 19.7616 29.5648 20.6098 28.7489C21.677 27.7219 22.1575 26.2849 21.9279 24.8064ZM17.7637 6.13726C17.9139 6.32576 18.0182 6.54865 18.0667 6.79187C18.1471 7.19376 18.0661 7.60292 17.8388 7.94393L13.2754 14.7891C13.0287 14.5326 12.7271 14.3295 12.39 14.1979L17.7637 6.13726ZM8.07396 22.5912C7.95502 22.7694 7.97189 23.0054 8.11474 23.165C8.87687 24.0164 9.17698 25.1552 8.93804 26.2896C8.65357 27.6401 7.55289 28.7251 6.19897 28.9894C5.02786 29.2182 3.87193 28.8837 3.02789 28.0717C2.18414 27.26 1.80463 26.1225 1.98668 24.9506C2.19182 23.6301 3.20343 22.4933 4.50397 22.1219C5.22046 21.9172 5.94028 21.9376 6.6434 22.1826C6.84561 22.253 7.06996 22.1778 7.18879 21.9996L9.71089 18.2164C9.95763 18.473 10.2592 18.676 10.5964 18.8077L8.07396 22.5912ZM19.9583 28.0717C19.1143 28.8837 17.9585 29.2181 16.7872 28.9894C15.4333 28.725 14.3326 27.64 14.0482 26.2896C13.8092 25.1553 14.1093 24.0164 14.8715 23.165C15.0143 23.0054 15.0312 22.7694 14.9123 22.5911L12.0074 18.2338C11.92 18.1027 11.773 18.0247 11.6166 18.0247C11.607 18.0247 11.5973 18.0249 11.5876 18.0255C11.5578 18.0274 11.5285 18.031 11.4993 18.035C11.4945 18.0357 11.4897 18.0364 11.485 18.037C10.6426 18.0326 9.95874 17.346 9.95874 16.5026C9.95874 16.2763 10.0139 16.0498 10.1226 15.8292C10.1968 15.6789 10.1852 15.5003 10.0922 15.3609L5.14739 7.94382C4.92005 7.6028 4.83913 7.19364 4.91946 6.79175C4.96804 6.54859 5.07221 6.32564 5.22251 6.13714L10.9787 14.7715C11.0715 14.9107 11.2314 14.99 11.3985 14.9798C11.4284 14.978 11.4576 14.9743 11.4869 14.9703C11.4917 14.9696 11.4965 14.9689 11.5012 14.9683C12.3436 14.9728 13.0275 15.6594 13.0275 16.5027C13.0275 16.729 12.9723 16.9556 12.8636 17.1762C12.7894 17.3265 12.801 17.505 12.894 17.6444L15.7974 21.9996C15.9162 22.1779 16.1406 22.2531 16.3428 22.1826C17.0459 21.9377 17.7656 21.9172 18.4822 22.1219C19.7828 22.4932 20.7944 23.63 20.9995 24.9506C21.1816 26.1224 20.8021 27.26 19.9583 28.0717Z" fill="#1E5DDB"/>
<path d="M11.4981 16.0329H11.4931C11.2337 16.0329 11.0259 16.2432 11.0259 16.5027C11.0259 16.7621 11.2387 16.9724 11.4981 16.9724C11.7575 16.9724 11.9678 16.7621 11.9678 16.5027C11.9678 16.2432 11.7575 16.0329 11.4981 16.0329Z" fill="#1E5DDB"/>
<path d="M22.0148 0H21.0127C20.7533 0 20.543 0.210292 20.543 0.469744C20.543 0.729138 20.7533 0.93943 21.0127 0.93943H22.0148C22.2742 0.93943 22.4845 0.729138 22.4845 0.469744C22.4845 0.210292 22.2742 0 22.0148 0Z" fill="#1E5DDB"/>
<path d="M16.0023 0H15.0003C14.7409 0 14.5305 0.210292 14.5305 0.469744C14.5305 0.729138 14.7408 0.93943 15.0003 0.93943H16.0023C16.2617 0.93943 16.4721 0.729138 16.4721 0.469744C16.472 0.210292 16.2617 0 16.0023 0Z" fill="#1E5DDB"/>
<path d="M12.9962 0H11.4931C11.2337 0 11.0234 0.210292 11.0234 0.469744V1.97284C11.0234 2.23224 11.2337 2.44259 11.4931 2.44259C11.7525 2.44259 11.9629 2.2323 11.9629 1.97284V0.93943H12.9962C13.2556 0.93943 13.4659 0.729138 13.4659 0.469744C13.466 0.210292 13.2556 0 12.9962 0Z" fill="#1E5DDB"/>
<path d="M19.0084 0H18.0064C17.747 0 17.5366 0.210292 17.5366 0.469744C17.5366 0.729138 17.7469 0.93943 18.0064 0.93943H19.0084C19.2678 0.93943 19.4782 0.729138 19.4782 0.469744C19.4782 0.210292 19.2679 0 19.0084 0Z" fill="#1E5DDB"/>
<path d="M25.0208 0H24.0188C23.7594 0 23.5491 0.210292 23.5491 0.469744C23.5491 0.729138 23.7594 0.93943 24.0188 0.93943H25.0208C25.2802 0.93943 25.4906 0.729138 25.4906 0.469744C25.4905 0.210292 25.2803 0 25.0208 0Z" fill="#1E5DDB"/>
<path d="M22.0148 17.035H21.0127C20.7533 17.035 20.543 17.2453 20.543 17.5048C20.543 17.7642 20.7533 17.9744 21.0127 17.9744H22.0148C22.2742 17.9744 22.4845 17.7641 22.4845 17.5048C22.4845 17.2454 22.2742 17.035 22.0148 17.035Z" fill="#1E5DDB"/>
<path d="M16.0023 17.035H15.5012C15.2418 17.035 15.0315 17.2453 15.0315 17.5048C15.0315 17.7642 15.2418 17.9744 15.5012 17.9744H16.0023C16.2617 17.9744 16.472 17.7641 16.472 17.5048C16.472 17.2454 16.2617 17.035 16.0023 17.035Z" fill="#1E5DDB"/>
<path d="M19.0084 17.035H18.0064C17.747 17.035 17.5366 17.2453 17.5366 17.5048C17.5366 17.7642 17.7469 17.9744 18.0064 17.9744H19.0084C19.2678 17.9744 19.4782 17.7641 19.4782 17.5048C19.4782 17.2454 19.2679 17.035 19.0084 17.035Z" fill="#1E5DDB"/>
<path d="M25.0208 17.035H24.0188C23.7594 17.035 23.5491 17.2453 23.5491 17.5048C23.5491 17.7642 23.7594 17.9744 24.0188 17.9744H25.0208C25.2802 17.9744 25.4906 17.7641 25.4906 17.5048C25.4906 17.2454 25.2803 17.035 25.0208 17.035Z" fill="#1E5DDB"/>
<path d="M28.5281 9.51957C28.2687 9.51957 28.0583 9.72986 28.0583 9.98931V10.9914C28.0583 11.2508 28.2686 11.4611 28.5281 11.4611C28.7875 11.4611 28.9978 11.2508 28.9978 10.9914V9.98931C28.9978 9.72986 28.7875 9.51957 28.5281 9.51957Z" fill="#1E5DDB"/>
<path d="M28.5281 3.50723C28.2687 3.50723 28.0583 3.71752 28.0583 3.97692V4.97898C28.0583 5.23838 28.2686 5.44867 28.5281 5.44867C28.7875 5.44867 28.9978 5.23838 28.9978 4.97898V3.97692C28.9978 3.71752 28.7875 3.50723 28.5281 3.50723Z" fill="#1E5DDB"/>
<path d="M28.5281 6.51337C28.2687 6.51337 28.0583 6.72367 28.0583 6.98312V7.98519C28.0583 8.24458 28.2686 8.45487 28.5281 8.45487C28.7875 8.45487 28.9978 8.24458 28.9978 7.98519V6.98312C28.9978 6.72372 28.7875 6.51337 28.5281 6.51337Z" fill="#1E5DDB"/>
<path d="M11.4931 9.51957C11.2337 9.51957 11.0234 9.72986 11.0234 9.98931V10.9914C11.0234 11.2508 11.2337 11.4611 11.4931 11.4611C11.7525 11.4611 11.9629 11.2508 11.9629 10.9914V9.98931C11.9629 9.72986 11.7525 9.51957 11.4931 9.51957Z" fill="#1E5DDB"/>
<path d="M11.4931 3.50723C11.2337 3.50723 11.0234 3.71752 11.0234 3.97692V4.97898C11.0234 5.23838 11.2337 5.44867 11.4931 5.44867C11.7525 5.44867 11.9629 5.23838 11.9629 4.97898V3.97692C11.9629 3.71752 11.7525 3.50723 11.4931 3.50723Z" fill="#1E5DDB"/>
<path d="M11.4931 6.51337C11.2337 6.51337 11.0234 6.72367 11.0234 6.98312V7.98519C11.0234 8.24458 11.2337 8.45487 11.4931 8.45487C11.7525 8.45487 11.9629 8.24458 11.9629 7.98519V6.98312C11.9629 6.72372 11.7525 6.51337 11.4931 6.51337Z" fill="#1E5DDB"/>
<path d="M28.5281 12.5258C28.2687 12.5258 28.0583 12.7361 28.0583 12.9955V13.9976C28.0583 14.257 28.2686 14.4673 28.5281 14.4673C28.7875 14.4673 28.9978 14.257 28.9978 13.9976V12.9955C28.9978 12.7361 28.7875 12.5258 28.5281 12.5258Z" fill="#1E5DDB"/>
<path d="M28.5282 0H27.0251C26.7657 0 26.5554 0.210292 26.5554 0.469744C26.5554 0.729138 26.7657 0.93943 27.0251 0.93943H28.0585V1.97279C28.0585 2.23218 28.2688 2.44253 28.5282 2.44253C28.7876 2.44253 28.9979 2.23224 28.9979 1.97279V0.469744C28.9979 0.210292 28.7877 0 28.5282 0Z" fill="#1E5DDB"/>
<path d="M28.5282 15.532C28.2688 15.532 28.0585 15.7423 28.0585 16.0017V17.035H27.0251C26.7657 17.035 26.5554 17.2453 26.5554 17.5048C26.5554 17.7642 26.7657 17.9744 27.0251 17.9744H28.5282C28.7876 17.9744 28.9979 17.7641 28.9979 17.5048V16.0017C28.9979 15.7423 28.7877 15.532 28.5282 15.532Z" fill="#1E5DDB"/>
</svg>
