<svg width="30" height="30" viewBox="0 0 30 30" fill="none" xmlns="http://www.w3.org/2000/svg">
<g clip-path="url(#clip0_63_3)">
<path d="M13.5179 19.062C13.0109 18.945 12.6299 18.822 12.3719 18.696L11.9009 19.785C12.2039 19.923 12.6299 20.049 13.1789 20.16C13.6619 20.259 14.2619 20.313 14.9699 20.325V21.75H16.1969V20.271C16.4609 20.238 16.7129 20.19 16.9469 20.124C17.4419 19.986 17.8619 19.791 18.2099 19.536C18.5579 19.281 18.8189 18.975 19.0019 18.624C19.1789 18.27 19.2719 17.871 19.2719 17.43C19.2719 16.89 19.1309 16.44 18.8519 16.077C18.5729 15.714 18.2219 15.402 17.7989 15.144C17.3789 14.883 16.9199 14.655 16.4279 14.46C16.3499 14.43 16.2779 14.397 16.1999 14.367V10.776C16.6679 10.794 17.1059 10.833 17.4959 10.911C17.9939 11.013 18.3749 11.118 18.6329 11.229L19.0529 10.14C18.7379 10.002 18.2999 9.891 17.7419 9.801C17.2739 9.726 16.7519 9.69 16.1999 9.678V8.25H14.9729V9.726C14.2229 9.819 13.6109 10.032 13.1459 10.377C12.5069 10.848 12.1889 11.487 12.1889 12.291C12.1889 12.861 12.3299 13.329 12.6089 13.698C12.8909 14.067 13.2389 14.376 13.6619 14.628C14.0639 14.868 14.5049 15.072 14.9759 15.243V19.23C14.4449 19.215 13.9559 19.164 13.5179 19.062ZM16.2029 15.741C16.2689 15.771 16.3409 15.801 16.4069 15.831C16.8269 16.032 17.1779 16.263 17.4599 16.524C17.7419 16.785 17.8799 17.121 17.8799 17.532C17.8799 17.826 17.8109 18.081 17.6699 18.297C17.5289 18.513 17.3429 18.693 17.1059 18.834C16.8689 18.975 16.5899 19.08 16.2659 19.143C16.2479 19.146 16.2239 19.149 16.2059 19.152V15.741H16.2029ZM14.0069 13.173C13.7279 12.918 13.5869 12.6 13.5869 12.216C13.5869 11.823 13.7729 11.481 14.1419 11.193C14.3579 11.025 14.6399 10.914 14.9759 10.842V13.812C14.5949 13.623 14.2679 13.41 14.0069 13.173Z" fill="#1E5DDB"/>
<path d="M29.6998 5.184C29.6998 2.811 27.7768 0.888 25.4038 0.888C24.0538 0.888 22.8538 1.512 22.0648 2.484C22.0648 2.484 22.0648 2.481 22.0678 2.481C20.1238 1.467 17.9188 0.891 15.5848 0.891C9.0958 0.891 3.5968 5.331 1.9678 11.322H0.299805L2.4478 13.776L4.5958 11.322H3.2638C4.8568 6.015 9.7798 2.115 15.5878 2.115C17.6938 2.115 19.6768 2.637 21.4348 3.54C21.2248 4.047 21.1078 4.602 21.1078 5.184C21.1078 7.557 23.0308 9.48 25.4038 9.48C25.9858 9.48 26.5408 9.363 27.0478 9.153C27.9508 10.911 28.4728 12.897 28.4728 15.003C28.4728 22.089 22.6738 27.888 15.5878 27.888C8.9128 27.888 3.3868 22.746 2.7658 16.23H1.5328C2.1598 23.418 8.2378 29.112 15.5878 29.112C23.3488 29.112 29.6998 22.761 29.6998 15C29.6998 12.666 29.1238 10.461 28.1068 8.517C29.0788 7.731 29.6998 6.531 29.6998 5.184ZM21.7468 2.943C21.7318 2.97 21.7138 2.997 21.6988 3.024C21.7138 2.997 21.7288 2.97 21.7468 2.943ZM22.3378 5.184C22.3378 3.489 23.7118 2.115 25.4068 2.115C27.1018 2.115 28.4758 3.489 28.4758 5.184C28.4758 6.879 27.1018 8.253 25.4068 8.253C23.7118 8.253 22.3378 6.879 22.3378 5.184ZM27.5638 8.892C27.5908 8.877 27.6208 8.859 27.6478 8.841C27.6178 8.859 27.5908 8.877 27.5638 8.892Z" fill="#1E5DDB"/>
<path d="M25.1876 4.965L24.3206 4.098L23.4536 4.965L24.3206 5.832L25.1876 6.699L26.0576 5.832L27.3596 4.53L26.4896 3.666L25.1876 4.965Z" fill="#1E5DDB"/>
</g>
<defs>
<clipPath id="clip0_63_3">
<rect width="30" height="30" fill="white"/>
</clipPath>
</defs>
</svg>

