<svg width="22" height="22" viewBox="0 0 20 20" fill="none" xmlns="http://www.w3.org/2000/svg">
<path d="M9 5.21875C8.25214 5.21875 7.52107 5.44052 6.89925 5.85601C6.27743 6.27149 5.79277 6.86204 5.50658 7.55298C5.22039 8.24391 5.14551 9.00419 5.29141 9.73768C5.43731 10.4712 5.79743 11.1449 6.32625 11.6737C6.85507 12.2026 7.52882 12.5627 8.26231 12.7086C8.99581 12.8545 9.75609 12.7796 10.447 12.4934C11.138 12.2072 11.7285 11.7226 12.144 11.1007C12.5595 10.4789 12.7812 9.74786 12.7812 9C12.7801 7.9975 12.3814 7.03638 11.6725 6.32751C10.9636 5.61863 10.0025 5.21989 9 5.21875ZM9 12.0938C8.38811 12.0938 7.78997 11.9123 7.2812 11.5724C6.77244 11.2324 6.37591 10.7492 6.14175 10.1839C5.90759 9.61862 5.84632 8.99657 5.9657 8.39644C6.08507 7.79631 6.37972 7.24506 6.81239 6.81239C7.24506 6.37972 7.79631 6.08507 8.39644 5.9657C8.99657 5.84632 9.61862 5.90759 10.1839 6.14175C10.7492 6.37591 11.2324 6.77244 11.5724 7.2812C11.9123 7.78997 12.0937 8.38811 12.0938 9C12.0937 9.82051 11.7678 10.6074 11.1876 11.1876C10.6074 11.7678 9.82051 12.0938 9 12.0938ZM13.125 0.40625H4.875C3.69023 0.407615 2.55438 0.878866 1.71662 1.71662C0.878866 2.55438 0.407615 3.69023 0.40625 4.875V13.125C0.407615 14.3098 0.878866 15.4456 1.71662 16.2834C2.55438 17.1211 3.69023 17.5924 4.875 17.5938H13.125C14.3098 17.5924 15.4456 17.1211 16.2834 16.2834C17.1211 15.4456 17.5924 14.3098 17.5938 13.125V4.875C17.5924 3.69023 17.1211 2.55438 16.2834 1.71662C15.4456 0.878866 14.3098 0.407615 13.125 0.40625ZM16.9062 13.125C16.9051 14.1275 16.5064 15.0886 15.7975 15.7975C15.0886 16.5064 14.1275 16.9051 13.125 16.9062H4.875C3.8725 16.9051 2.91138 16.5064 2.20251 15.7975C1.49363 15.0886 1.09489 14.1275 1.09375 13.125V4.875C1.09489 3.8725 1.49363 2.91138 2.20251 2.20251C2.91138 1.49363 3.8725 1.09489 4.875 1.09375H13.125C14.1275 1.09489 15.0886 1.49363 15.7975 2.20251C16.5064 2.91138 16.9051 3.8725 16.9062 4.875V13.125ZM14.1562 4.53125C14.1562 4.66722 14.1159 4.80015 14.0404 4.9132C13.9648 5.02626 13.8575 5.11438 13.7318 5.16642C13.6062 5.21845 13.468 5.23207 13.3346 5.20554C13.2013 5.17901 13.0788 5.11353 12.9826 5.01739C12.8865 4.92124 12.821 4.79874 12.7945 4.66537C12.7679 4.53201 12.7815 4.39378 12.8336 4.26815C12.8856 4.14253 12.9737 4.03516 13.0868 3.95961C13.1999 3.88407 13.3328 3.84375 13.4688 3.84375C13.6511 3.84375 13.826 3.91618 13.9549 4.04511C14.0838 4.17405 14.1562 4.34891 14.1562 4.53125Z" fill="black"/>
</svg>
