<svg width="22" height="22" viewBox="0 0 22 22" fill="none" xmlns="http://www.w3.org/2000/svg">
<path d="M11 7.21875C10.2521 7.21875 9.52107 7.44052 8.89925 7.85601C8.27743 8.27149 7.79277 8.86204 7.50658 9.55298C7.22039 10.2439 7.14551 11.0042 7.29141 11.7377C7.43731 12.4712 7.79743 13.1449 8.32625 13.6737C8.85507 14.2026 9.52882 14.5627 10.2623 14.7086C10.9958 14.8545 11.7561 14.7796 12.447 14.4934C13.138 14.2072 13.7285 13.7226 14.144 13.1007C14.5595 12.4789 14.7812 11.7479 14.7812 11C14.7801 9.9975 14.3814 9.03638 13.6725 8.32751C12.9636 7.61863 12.0025 7.21989 11 7.21875ZM11 14.0938C10.3881 14.0938 9.78997 13.9123 9.2812 13.5724C8.77244 13.2324 8.37591 12.7492 8.14175 12.1839C7.90759 11.6186 7.84632 10.9966 7.9657 10.3964C8.08507 9.79631 8.37972 9.24506 8.81239 8.81239C9.24506 8.37972 9.79631 8.08507 10.3964 7.9657C10.9966 7.84632 11.6186 7.90759 12.1839 8.14175C12.7492 8.37591 13.2324 8.77244 13.5724 9.2812C13.9123 9.78997 14.0937 10.3881 14.0938 11C14.0937 11.8205 13.7678 12.6074 13.1876 13.1876C12.6074 13.7678 11.8205 14.0938 11 14.0938ZM15.125 2.40625H6.875C5.69023 2.40761 4.55438 2.87887 3.71662 3.71662C2.87887 4.55438 2.40761 5.69023 2.40625 6.875V15.125C2.40761 16.3098 2.87887 17.4456 3.71662 18.2834C4.55438 19.1211 5.69023 19.5924 6.875 19.5938H15.125C16.3098 19.5924 17.4456 19.1211 18.2834 18.2834C19.1211 17.4456 19.5924 16.3098 19.5938 15.125V6.875C19.5924 5.69023 19.1211 4.55438 18.2834 3.71662C17.4456 2.87887 16.3098 2.40761 15.125 2.40625ZM18.9062 15.125C18.9051 16.1275 18.5064 17.0886 17.7975 17.7975C17.0886 18.5064 16.1275 18.9051 15.125 18.9062H6.875C5.8725 18.9051 4.91138 18.5064 4.20251 17.7975C3.49363 17.0886 3.09489 16.1275 3.09375 15.125V6.875C3.09489 5.8725 3.49363 4.91138 4.20251 4.20251C4.91138 3.49363 5.8725 3.09489 6.875 3.09375H15.125C16.1275 3.09489 17.0886 3.49363 17.7975 4.20251C18.5064 4.91138 18.9051 5.8725 18.9062 6.875V15.125ZM16.1562 6.53125C16.1562 6.66722 16.1159 6.80015 16.0404 6.9132C15.9648 7.02626 15.8575 7.11438 15.7318 7.16642C15.6062 7.21845 15.468 7.23207 15.3346 7.20554C15.2013 7.17901 15.0788 7.11353 14.9826 7.01739C14.8865 6.92124 14.821 6.79874 14.7945 6.66537C14.7679 6.53201 14.7815 6.39378 14.8336 6.26815C14.8856 6.14253 14.9737 6.03516 15.0868 5.95961C15.1999 5.88407 15.3328 5.84375 15.4688 5.84375C15.6511 5.84375 15.826 5.91618 15.9549 6.04511C16.0838 6.17405 16.1562 6.34891 16.1562 6.53125Z" fill="black"/>
</svg>
