<svg width="22" height="22" viewBox="0 0 20 20" fill="none" xmlns="http://www.w3.org/2000/svg">
<path d="M18.3023 2.2828C18.2484 2.23621 18.1828 2.20526 18.1125 2.19328C18.0423 2.1813 17.9701 2.18875 17.9039 2.21483L2.07104 8.41093C1.90964 8.47358 1.77297 8.58699 1.68164 8.73408C1.59032 8.88117 1.54927 9.05396 1.5647 9.22641C1.58013 9.39885 1.65119 9.56161 1.76718 9.69015C1.88317 9.81869 2.0378 9.90605 2.20776 9.93905L6.56244 10.7937V15.625C6.56242 15.8119 6.61826 15.9946 6.72281 16.1495C6.82736 16.3044 6.97583 16.4246 7.14916 16.4945C7.26071 16.5393 7.37976 16.5623 7.49994 16.5625C7.62574 16.5622 7.7502 16.5366 7.86589 16.4872C7.98159 16.4378 8.08616 16.3656 8.17338 16.275L10.3609 14.0094L13.7203 16.9555C13.8906 17.1057 14.1096 17.1889 14.3367 17.1898C14.4358 17.1894 14.5344 17.1739 14.6289 17.1437C14.7835 17.0948 14.9226 17.0061 15.0323 16.8866C15.142 16.767 15.2184 16.6208 15.2539 16.4625L18.4273 2.66561C18.4432 2.59647 18.4399 2.5243 18.4179 2.45686C18.3959 2.38941 18.3559 2.32924 18.3023 2.2828ZM2.18744 9.1703C2.18286 9.13251 2.19138 9.09429 2.21156 9.06202C2.23175 9.02975 2.2624 9.00537 2.29838 8.99296L15.9429 3.65311L6.80229 10.2039L2.32885 9.32577C2.29093 9.32022 2.25612 9.30169 2.23033 9.27334C2.20455 9.24499 2.18939 9.20857 2.18744 9.1703ZM7.72416 15.8406C7.68096 15.8851 7.62549 15.9158 7.56481 15.9286C7.50413 15.9415 7.441 15.936 7.38344 15.9129C7.32589 15.8898 7.27651 15.8501 7.24161 15.7988C7.20671 15.7475 7.18785 15.687 7.18744 15.625V11.2266L9.88901 13.5937L7.72416 15.8406ZM14.6445 16.3203C14.6324 16.3734 14.6067 16.4223 14.5698 16.4624C14.533 16.5024 14.4864 16.5322 14.4345 16.5487C14.3827 16.5652 14.3274 16.5678 14.2742 16.5564C14.221 16.545 14.1717 16.5199 14.1312 16.4836L7.37729 10.5609L17.6664 3.18749L14.6445 16.3203Z" fill="black"/>
</svg>
