<svg width="22" height="22" viewBox="0 0 18 16" fill="none" xmlns="http://www.w3.org/2000/svg">
<path d="M17.3023 0.282801C17.2484 0.236215 17.1828 0.205256 17.1125 0.193276C17.0423 0.181296 16.9701 0.18875 16.9039 0.214832L1.07104 6.41093C0.909636 6.47358 0.772972 6.58699 0.681643 6.73408C0.590315 6.88117 0.549272 7.05396 0.564701 7.22641C0.580129 7.39885 0.651193 7.56161 0.767181 7.69015C0.88317 7.81869 1.0378 7.90605 1.20776 7.93905L5.56244 8.79374V13.625C5.56242 13.8119 5.61826 13.9946 5.72281 14.1495C5.82736 14.3044 5.97583 14.4246 6.14916 14.4945C6.26071 14.5393 6.37976 14.5623 6.49994 14.5625C6.62574 14.5622 6.7502 14.5366 6.86589 14.4872C6.98159 14.4378 7.08616 14.3656 7.17338 14.275L9.36088 12.0094L12.7203 14.9555C12.8906 15.1057 13.1096 15.1889 13.3367 15.1898C13.4358 15.1894 13.5344 15.1739 13.6289 15.1437C13.7835 15.0948 13.9226 15.0061 14.0323 14.8866C14.142 14.767 14.2184 14.6208 14.2539 14.4625L17.4273 0.665613C17.4432 0.596469 17.4399 0.524301 17.4179 0.456858C17.3959 0.389414 17.3559 0.329242 17.3023 0.282801ZM1.18744 7.1703C1.18286 7.13251 1.19138 7.09429 1.21156 7.06202C1.23175 7.02975 1.2624 7.00537 1.29838 6.99296L14.9429 1.65311L5.80229 8.2039L1.32885 7.32577C1.29093 7.32022 1.25612 7.30169 1.23033 7.27334C1.20455 7.24499 1.18939 7.20857 1.18744 7.1703ZM6.72416 13.8406C6.68096 13.8851 6.62549 13.9158 6.56481 13.9286C6.50413 13.9415 6.441 13.936 6.38344 13.9129C6.32589 13.8898 6.27651 13.8501 6.24161 13.7988C6.20671 13.7475 6.18785 13.687 6.18744 13.625V9.22655L8.88901 11.5937L6.72416 13.8406ZM13.6445 14.3203C13.6324 14.3734 13.6067 14.4223 13.5698 14.4624C13.533 14.5024 13.4864 14.5322 13.4345 14.5487C13.3827 14.5652 13.3274 14.5678 13.2742 14.5564C13.221 14.545 13.1717 14.5199 13.1312 14.4836L6.37729 8.56093L16.6664 1.18749L13.6445 14.3203Z" fill="black"/>
</svg>
