<svg width="35" height="35" viewBox="-2 -1 35 35" fill="none" xmlns="http://www.w3.org/2000/svg">
<path d="M28.6255 10.249H17.2112V1.58367C17.2112 0.957539 16.7018 0.448242 16.0757 0.448242H13.9243C13.2982 0.448242 12.7889 0.957598 12.7889 1.58367V10.249H1.37449C0.616641 10.249 0 10.8656 0 11.6235V14.5866C0 15.3446 0.616641 15.9611 1.37449 15.9611H1.57225L3.12129 26.9703C3.32836 28.442 4.60529 29.5518 6.09146 29.5518H23.9084C25.3946 29.5518 26.6715 28.4419 26.8786 26.9703L28.4277 15.9611H28.6254C29.3834 15.9611 29.9999 15.3445 29.9999 14.5866V11.6235C30 10.8656 29.3835 10.249 28.6255 10.249ZM13.984 1.64344H16.0159V13.0578H13.984V1.64344ZM25.6951 26.8038C25.5706 27.689 24.8024 28.3566 23.9085 28.3566H6.09146C5.1975 28.3566 4.42939 27.6891 4.30482 26.8038L2.77922 15.9611H27.2207L25.6951 26.8038ZM28.8048 14.5866C28.8048 14.6854 28.7244 14.7659 28.6255 14.7659H1.37449C1.27564 14.7659 1.1952 14.6854 1.1952 14.5866V11.6235C1.1952 11.5246 1.27564 11.4442 1.37449 11.4442H12.7888V13.1175C12.7888 13.7436 13.2982 14.2529 13.9243 14.2529H16.0757C16.7018 14.2529 17.2111 13.7436 17.2111 13.1175V11.4442H28.6254C28.7243 11.4442 28.8047 11.5246 28.8047 11.6235V14.5866H28.8048Z"
      fill="#1E5DDB"/>
</svg>
