<svg xmlns="http://www.w3.org/2000/svg" version="1.1" xmlns:xlink="http://www.w3.org/1999/xlink" xmlns:svgjs="http://svgjs.dev/svgjs" width="330" height="189.09"><g><svg viewBox="0 0 395.52 247.2" height="189.09" width="330" xmlns="http://www.w3.org/2000/svg" version="1.1" xmlns:xlink="http://www.w3.org/1999/xlink" xmlns:svgjs="http://svgjs.com/svgjs" x="0" y="0" viewbox="0 0 330 189.09"><g><svg></svg></g><g><svg viewBox="0 0 395.52 247.2" height="247.2" width="395.52"><g transform="matrix(1,0,0,1,75.54432,93.7532992150285)"><svg viewBox="0 0 244.43135999999998 59.69340156994297" height="59.69340156994297" width="244.43135999999998"><g><svg viewBox="0 0 244.43135999999998 59.69340156994297" height="59.69340156994297" width="244.43135999999998"><g><svg viewBox="0 0 244.43136 59.69340156994298" height="59.69340156994297" width="244.43135999999998"><g><svg viewBox="0 0 244.43136 59.69340156994298" height="59.69340156994298" width="244.43136"><g id="textblocktransform"><svg viewBox="0 0 244.43136 59.69340156994298" height="59.69340156994298" width="244.43136" id="textblock"><g><svg viewBox="0 0 244.43136 59.69340156994298" height="59.69340156994298" width="244.43136"><g transform="matrix(1,0,0,1,0,0)"><svg width="244.43136" viewBox="1.0499999523162842 -35.70000076293945 149.0399932861328 36.400001525878906" height="59.69340156994298" data-palette-color="#db4f35"><path d="M15.8 0.7Q11.55 0.7 7.55-0.35 3.55-1.4 1.05-3.15L1.05-3.15 4.3-10.45Q6.65-8.9 9.75-7.95 12.85-7 15.85-7L15.85-7Q21.55-7 21.55-9.85L21.55-9.85Q21.55-11.35 19.93-12.08 18.3-12.8 14.7-13.6L14.7-13.6Q10.75-14.45 8.1-15.43 5.45-16.4 3.55-18.55 1.65-20.7 1.65-24.35L1.65-24.35Q1.65-27.55 3.4-30.13 5.15-32.7 8.63-34.2 12.1-35.7 17.15-35.7L17.15-35.7Q20.6-35.7 23.95-34.93 27.3-34.15 29.85-32.65L29.85-32.65 26.8-25.3Q21.8-28 17.1-28L17.1-28Q14.15-28 12.8-27.13 11.45-26.25 11.45-24.85L11.45-24.85Q11.45-23.45 13.05-22.75 14.65-22.05 18.2-21.3L18.2-21.3Q22.2-20.45 24.83-19.48 27.45-18.5 29.38-16.38 31.3-14.25 31.3-10.6L31.3-10.6Q31.3-7.45 29.55-4.9 27.8-2.35 24.3-0.83 20.8 0.7 15.8 0.7L15.8 0.7ZM35.85 0L35.85-35 45.75-35 45.75 0 35.85 0ZM52.8 0L52.8-35 62.7-35 62.7-7.85 79.4-7.85 79.4 0 52.8 0ZM93.09-7.65L111.39-7.65 111.39 0 83.29 0 83.29-35 110.74-35 110.74-27.35 93.09-27.35 93.09-21.45 108.64-21.45 108.64-14.05 93.09-14.05 93.09-7.65ZM150.09 0L138.69 0 131.44-10.85 124.29 0 112.99 0 125.74-17.7 113.54-35 124.69-35 131.69-24.9 138.59-35 149.29-35 137.09-18.1 150.09 0Z" opacity="1" transform="matrix(1,0,0,1,0,0)" fill="#db4f35" class="undefined-text-0" data-fill-palette-color="primary" id="text-0"></path></svg></g></svg></g></svg></g></svg></g></svg></g></svg></g></svg></g><path d="M197.174 87.753L197.174 28.975 386.423 28.975 386.423 218.225 197.174 218.225 197.174 159.447 202.557 159.447 202.557 212.841 381.04 212.841 381.04 34.359 202.557 34.359 202.557 87.753Z" fill="#db4f35" stroke="transparent" data-fill-palette-color="primary"></path></svg></g><defs></defs></svg></g></svg>