<svg width="15" height="13" viewBox="0 0 15 13" fill="none" xmlns="http://www.w3.org/2000/svg">
<path d="M12.5206 12.0465H2.46202C1.14961 12.0465 0.0820312 10.9789 0.0820312 9.66651V3.31652C0.0820312 2.00427 1.14978 0.936523 2.46202 0.936523H12.5206C13.8328 0.936523 14.9004 2.00427 14.9004 3.31652V9.66651C14.9004 10.9789 13.8328 12.0465 12.5206 12.0465ZM2.46202 1.63249C1.53341 1.63249 0.778 2.3879 0.778 3.31652V9.66651C0.778 10.5951 1.53341 11.3507 2.46202 11.3507H12.5206C13.4492 11.3507 14.2046 10.5951 14.2046 9.66651V3.31652C14.2046 2.3879 13.4492 1.63249 12.5206 1.63249H2.46202V1.63249Z" fill="#1D1D1B"/>
<path d="M1.90006 3.34963C3.67892 5.08304 5.45778 6.8163 7.23664 8.54972C7.56825 8.87276 8.07717 8.36498 7.74508 8.04128C5.96622 6.30803 4.18736 4.57461 2.40849 2.84136C2.07689 2.51815 1.56796 3.02609 1.90006 3.34963Z" fill="#1D1D1B"/>
<path d="M7.74536 8.5497C9.52422 6.81644 11.3031 5.08302 13.0819 3.34977C13.4139 3.02623 12.9053 2.51813 12.5735 2.84133C10.7946 4.57459 9.01579 6.30801 7.23693 8.04126C6.90499 8.36479 7.41359 8.8729 7.74536 8.5497Z" fill="#1D1D1B"/>
<path d="M13.0625 9.77667C11.8789 8.6541 10.6951 7.53169 9.5114 6.40911C9.17568 6.09085 8.66643 6.5983 9.00297 6.91755C10.1866 8.04012 11.3704 9.16253 12.5541 10.2851C12.8898 10.6034 13.3991 10.0958 13.0625 9.77667Z" fill="#1D1D1B"/>
<path d="M2.46057 10.2849C3.64423 9.16236 4.82805 8.03995 6.01171 6.91738C6.34809 6.59829 5.83916 6.09052 5.50328 6.40895C4.31962 7.53152 3.1358 8.65393 1.95214 9.7765C1.61576 10.0956 2.12469 10.6035 2.46057 10.2849Z" fill="#1D1D1B"/>
</svg>
