<svg width="30" height="22" viewBox="0 0 30 22" fill="none" xmlns="http://www.w3.org/2000/svg">
<path d="M1.25 22C0.895833 22 0.599167 21.88 0.36 21.64C0.12 21.4008 0 21.1042 0 20.75C0 20.3958 0.12 20.0992 0.36 19.86C0.599167 19.62 0.895833 19.5 1.25 19.5H2.5V3.25C2.5 2.5625 2.745 1.97375 3.235 1.48375C3.72417 0.994583 4.3125 0.75 5 0.75H25C25.6875 0.75 26.2763 0.994583 26.7663 1.48375C27.2554 1.97375 27.5 2.5625 27.5 3.25V19.5H28.75C29.1042 19.5 29.4008 19.62 29.64 19.86C29.88 20.0992 30 20.3958 30 20.75C30 21.1042 29.88 21.4008 29.64 21.64C29.4008 21.88 29.1042 22 28.75 22H1.25ZM13.125 19.5H16.875C17.0417 19.5 17.1875 19.4375 17.3125 19.3125C17.4375 19.1875 17.5 19.0417 17.5 18.875C17.5 18.7083 17.4375 18.5625 17.3125 18.4375C17.1875 18.3125 17.0417 18.25 16.875 18.25H13.125C12.9583 18.25 12.8125 18.3125 12.6875 18.4375C12.5625 18.5625 12.5 18.7083 12.5 18.875C12.5 19.0417 12.5625 19.1875 12.6875 19.3125C12.8125 19.4375 12.9583 19.5 13.125 19.5ZM5 15.75H25V3.25H5V15.75ZM5 15.75V3.25V15.75Z" fill="#1E5DDB"/>
</svg>
